<?xml version="1.0"?><svg version="1.1" id="Layer_1" xmlns="http://www.w3.org/2000/svg" x="0" y="0" viewBox="0 0 100 100" xml:space="preserve"><path d="M81.116 28.727h-8.83l-3.606-9.281a7.684 7.684 0 0 0-7.163-4.901H48.613a7.684 7.684 0 0 0-7.163 4.901l-3.606 9.281h-18.96A7.884 7.884 0 0 0 11 36.611V77.57a7.884 7.884 0 0 0 7.884 7.884h62.231a7.884 7.884 0 0 0 7.884-7.884V36.611a7.883 7.883 0 0 0-7.883-7.884z" stroke-linejoin="round" fill="#666766" stroke="#333" stroke-width="3.5" stroke-miterlimit="10"/><path stroke-linecap="round" fill="none" stroke="#fff" stroke-linejoin="round" stroke-width="3.5" stroke-miterlimit="10" d="M17 50.25v1.25"/><path d="M23.173 34.727h-1.412A4.76 4.76 0 0 0 17 39.488v4.761" stroke-linecap="round" fill="none" stroke="#fff" stroke-linejoin="round" stroke-width="3.5" stroke-miterlimit="10"/><path fill="none" stroke-linejoin="round" stroke="#333" stroke-width="3.5" stroke-linecap="round" stroke-miterlimit="10" d="M25.688 41.896v32.416"/><path d="M31.766 28.727H17.584v-3.039a3.04 3.04 0 0 1 3.039-3.039h8.104a3.04 3.04 0 0 1 3.039 3.039v3.039z" stroke-width="3.5" stroke-miterlimit="10" fill="#333" stroke-linecap="round" stroke="#333" stroke-linejoin="round"/><circle cx="55.065" cy="57.091" r="21.273" stroke-linejoin="round" fill="#666766" stroke="#333" stroke-width="3.5" stroke-miterlimit="10"/><path fill="none" stroke-linejoin="round" stroke="#333" stroke-width="3.5" stroke-linecap="round" stroke-miterlimit="10" d="M48.987 28.727h13.169"/><circle cx="78.364" cy="37.844" r="3.039" fill="#f0af6b"/><path d="M76 50.091c-.287 0-.567.022-.845.056a21.205 21.205 0 0 1 1.183 6.944c0 2.435-.429 4.765-1.183 6.944.278.033.558.056.845.056a7 7 0 1 0 0-14z" fill="#333"/><path d="M81.116 28.727h-8.83l-3.606-9.281a7.684 7.684 0 0 0-7.163-4.901H57v70.909h24.116A7.884 7.884 0 0 0 89 77.57V36.611a7.884 7.884 0 0 0-7.884-7.884z" opacity=".2" stroke-linejoin="round" stroke="#000" stroke-width="3.5" stroke-miterlimit="10"/><circle cx="55.065" cy="57.091" r="14.688" fill="#e0e0e0" stroke="#333" stroke-width="3.5" stroke-linejoin="round" stroke-miterlimit="10"/><path d="M49.998 50.266a8.457 8.457 0 0 1 3.233-1.476" stroke-linecap="round" fill="none" stroke="#fff" stroke-linejoin="round" stroke-width="3.5" stroke-miterlimit="10"/><path d="M47.007 54.377c.044-.131.091-.26.141-.387" stroke-linecap="round" fill="none" stroke="#fff" stroke-linejoin="round" stroke-width="3.5" stroke-miterlimit="10"/><path d="M65.853 47.147L45.121 67.879a14.678 14.678 0 0 0 4.13 2.699l19.302-19.302a14.712 14.712 0 0 0-2.7-4.129z" opacity=".3" fill="#f3e4c7"/><path d="M69.318 53.597L51.571 71.344c.575.141 1.161.254 1.761.325l16.31-16.31a14.56 14.56 0 0 0-.324-1.762z" opacity=".3" fill="#f3e4c7"/><metadata xmlns:d="https://loading.io/stock/">
<d:name>camera</d:name>
<d:tags>camera,photographer,documentary,film,record,image</d:tags>
<d:license>by</d:license>
<d:slug>jq6h5j</d:slug>
</metadata></svg>